<svg viewBox="40 0 142 130" fill="none" xmlns="http://www.w3.org/2000/svg">
  <!-- Runner: trailing arm -->
  <path d="M 84,62 C 75,64 66,70 59,78 C 53,84 47,87 41,85 C 37,83 34,85 33,88 C 32,91 34,93 37,92 C 41,90 45,88 49,85 C 54,82 58,77 64,71 C 70,65 79,59 90,57" fill="white" stroke="black" stroke-width="2.5" stroke-linecap="round" stroke-linejoin="round"/>
  <path d="M 33,88 C 29,86 27,83 29,80 C 30,78 33,79 34,82" fill="white" stroke="black" stroke-width="2" stroke-linecap="round"/>
  <path d="M 33,88 C 30,91 29,95 31,96 C 33,97 35,95 35,91" fill="white" stroke="black" stroke-width="2" stroke-linecap="round"/>
  <!-- Torso -->
  <path d="M 85,56 C 89,50 97,46 108,46 C 119,46 127,50 131,56 L 133,80 C 133,87 129,93 118,95 C 107,97 94,95 88,91 C 83,87 82,81 84,73 Z" fill="white" stroke="black" stroke-width="2.5" stroke-linejoin="round"/>
  <!-- Shorts -->
  <path d="M 88,91 C 86,95 84,102 86,111 L 97,111 C 99,105 101,99 104,95 L 112,95 C 115,99 118,105 120,111 L 131,111 C 133,101 131,95 129,91 Z" fill="white" stroke="black" stroke-width="2.5" stroke-linejoin="round"/>
  <!-- Leading leg -->
  <path d="M 86,111 C 82,115 76,123 72,128 L 56,128 C 52,128 50,130 52,131 C 54,132 67,132 76,131 C 84,130 93,126 97,120 C 100,115 99,111 97,111" fill="white" stroke="black" stroke-width="2.5" stroke-linecap="round" stroke-linejoin="round"/>
  <!-- Trailing leg -->
  <path d="M 120,111 C 125,109 131,101 137,93 C 143,84 147,73 147,63 C 147,57 144,53 141,53 L 137,57 C 137,63 136,73 132,83 C 128,92 123,103 121,111" fill="white" stroke="black" stroke-width="2.5" stroke-linecap="round" stroke-linejoin="round"/>
  <!-- Trailing foot -->
  <path d="M 141,53 C 139,47 134,43 128,42 C 122,41 116,44 115,48 C 114,52 117,57 121,57 C 125,57 132,55 137,53" fill="white" stroke="black" stroke-width="2.5" stroke-linecap="round" stroke-linejoin="round"/>
  <!-- Neck -->
  <path d="M 102,46 L 100,38 L 109,38 L 108,46" fill="white" stroke="black" stroke-width="2.5" stroke-linejoin="round"/>
  <!-- Head -->
  <ellipse cx="102" cy="26" rx="21" ry="22" fill="white" stroke="black" stroke-width="2.5"/>
  <!-- Hair -->
  <path d="M 83,16 L 78,4 L 87,15 L 90,12 L 87,1 L 95,12 L 99,9 L 97,0 L 104,10 L 107,10 L 109,1 L 114,12 L 113,14 L 118,5 L 121,16" fill="white" stroke="black" stroke-width="2.5" stroke-linecap="round" stroke-linejoin="round"/>
  <!-- Ear -->
  <path d="M 82,23 C 79,21 78,25 80,28 C 81,30 84,29 84,26" fill="white" stroke="black" stroke-width="2"/>
  <!-- Eyes -->
  <circle cx="93" cy="23" r="8.5" fill="white" stroke="black" stroke-width="2.5"/>
  <circle cx="110" cy="21" r="8.5" fill="white" stroke="black" stroke-width="2.5"/>
  <circle cx="93" cy="24" r="5" fill="white" stroke="black" stroke-width="1.5"/>
  <circle cx="110" cy="22" r="5" fill="white" stroke="black" stroke-width="1.5"/>
  <circle cx="93" cy="24" r="2.5" fill="black"/>
  <circle cx="110" cy="22" r="2.5" fill="black"/>
  <!-- Nose -->
  <path d="M 107,30 C 109,33 111,33 113,31" stroke="black" stroke-width="2" fill="none" stroke-linecap="round"/>
  <!-- Mouth -->
  <path d="M 97,37 C 100,42 108,43 112,38" fill="black" stroke="black" stroke-width="2" stroke-linecap="round" stroke-linejoin="round"/>
  <line x1="100" y1="38" x2="100" y2="41" stroke="white" stroke-width="2.5" stroke-linecap="round"/>
  <line x1="104" y1="37" x2="104" y2="42" stroke="white" stroke-width="2.5" stroke-linecap="round"/>
  <line x1="108" y1="38" x2="108" y2="42" stroke="white" stroke-width="2.5" stroke-linecap="round"/>
  <!-- Leading arm + fist -->
  <path d="M 131,63 C 139,63 149,60 158,56 C 164,53 169,49 169,45 C 169,42 166,40 163,40 C 160,40 157,42 155,45 C 153,48 150,50 146,51 C 142,52 139,51 138,48 C 137,45 138,43 140,42 C 142,41 144,42 145,44" fill="white" stroke="black" stroke-width="2.5" stroke-linecap="round" stroke-linejoin="round"/>
  <path d="M 155,45 C 157,43 160,42 163,43" stroke="black" stroke-width="1.5" stroke-linecap="round" fill="none"/>
</svg>
